<svg xmlns="http://www.w3.org/2000/svg" xmlns:xlink="http://www.w3.org/1999/xlink" width="500" zoomAndPan="magnify" viewBox="0 0 375 299.999988" height="400" preserveAspectRatio="xMidYMid meet" version="1.0"><defs><g/><clipPath id="c28d5d6e01"><path d="M 105.625 19.074219 L 226 19.074219 L 226 139 L 105.625 139 Z M 105.625 19.074219 " clip-rule="nonzero"/></clipPath><clipPath id="7344dc351d"><path d="M 39.832031 19.074219 L 93.832031 19.074219 L 93.832031 73.074219 L 39.832031 73.074219 Z M 39.832031 19.074219 " clip-rule="nonzero"/></clipPath><clipPath id="258bf02f93"><path d="M 240.664062 75.011719 L 287 75.011719 L 287 121.511719 L 240.664062 121.511719 Z M 240.664062 75.011719 " clip-rule="nonzero"/></clipPath><clipPath id="c364718855"><path d="M 126.574219 151.683594 L 155.074219 151.683594 L 155.074219 180.183594 L 126.574219 180.183594 Z M 126.574219 151.683594 " clip-rule="nonzero"/></clipPath><clipPath id="a54c8ab984"><rect x="0" width="364" y="0" height="75"/></clipPath></defs><path fill="#22c55e" d="M 197.648438 120.960938 L 207.503906 111.101562 L 227.515625 131.113281 L 217.660156 140.96875 Z M 197.648438 120.960938 " fill-opacity="1" fill-rule="nonzero"/><path fill="#22c55e" d="M 259.117188 151.53125 C 263.472656 155.886719 263.472656 162.957031 259.117188 167.316406 L 253.859375 172.570312 C 249.496094 176.929688 242.4375 176.929688 238.082031 172.570312 L 209.898438 144.378906 C 205.535156 140.019531 205.535156 132.957031 209.890625 128.601562 L 215.152344 123.34375 C 219.507812 118.988281 226.578125 118.988281 230.933594 123.34375 Z M 259.117188 151.53125 " fill-opacity="1" fill-rule="nonzero"/><g clip-path="url(#c28d5d6e01)"><path fill="#22c55e" d="M 165.484375 19.003906 C 132.378906 19.003906 105.550781 45.828125 105.550781 78.9375 C 105.550781 112.042969 132.378906 138.875 165.484375 138.875 C 198.59375 138.875 225.425781 112.042969 225.425781 78.9375 C 225.425781 45.828125 198.59375 19.003906 165.484375 19.003906 Z M 165.484375 127.785156 C 138.5 127.785156 116.632812 105.921875 116.632812 78.9375 C 116.632812 51.949219 138.5 30.089844 165.484375 30.089844 C 192.472656 30.089844 214.339844 51.949219 214.339844 78.9375 C 214.339844 105.921875 192.472656 127.785156 165.484375 127.785156 Z M 165.484375 127.785156 " fill-opacity="1" fill-rule="nonzero"/></g><path fill="#22c55e" d="M 177.773438 108.605469 C 153.867188 108.605469 134.472656 89.214844 134.472656 65.304688 C 134.472656 64.667969 134.539062 64.042969 134.570312 63.410156 C 131.414062 68.515625 129.5625 74.519531 129.5625 80.957031 C 129.5625 99.449219 144.550781 114.429688 163.035156 114.429688 C 170.175781 114.429688 176.773438 112.183594 182.214844 108.378906 C 180.757812 108.535156 179.273438 108.605469 177.773438 108.605469 Z M 177.773438 108.605469 " fill-opacity="1" fill-rule="nonzero"/><g clip-path="url(#7344dc351d)"><path fill="#22c55e" d="M 39.832031 46.046875 C 63.222656 49.632812 63.222656 49.632812 66.8125 73.027344 C 70.390625 49.632812 70.390625 49.632812 93.78125 46.046875 C 70.390625 42.46875 70.390625 42.46875 66.8125 19.078125 C 63.222656 42.46875 63.222656 42.46875 39.832031 46.046875 " fill-opacity="1" fill-rule="nonzero"/></g><g clip-path="url(#258bf02f93)"><path fill="#22c55e" d="M 240.664062 98.171875 C 260.75 101.25 260.75 101.25 263.828125 121.335938 C 266.902344 101.25 266.902344 101.25 286.984375 98.171875 C 266.902344 95.097656 266.902344 95.097656 263.828125 75.015625 C 260.75 95.097656 260.75 95.097656 240.664062 98.171875 " fill-opacity="1" fill-rule="nonzero"/></g><g clip-path="url(#c364718855)"><path fill="#22c55e" d="M 126.574219 166.019531 C 139.007812 167.925781 139.007812 167.925781 140.914062 180.359375 C 142.816406 167.925781 142.816406 167.925781 155.246094 166.019531 C 142.816406 164.117188 142.816406 164.117188 140.914062 151.683594 C 139.007812 164.117188 139.007812 164.117188 126.574219 166.019531 " fill-opacity="1" fill-rule="nonzero"/></g><g transform="matrix(1, 0, 0, 1, 5, 202)"><g clip-path="url(#a54c8ab984)"><g fill="#22c55e" fill-opacity="1"><g transform="translate(1.697654, 60.389881)"><g><path d="M 28.4375 -33.15625 L 19.1875 -33.15625 L 19.1875 -36.703125 C 19.1875 -37.078125 19.054688 -37.398438 18.796875 -37.671875 C 18.546875 -37.953125 18.234375 -38.09375 17.859375 -38.09375 L 14.046875 -38.09375 C 13.671875 -38.09375 13.351562 -37.953125 13.09375 -37.671875 C 12.84375 -37.398438 12.71875 -37.078125 12.71875 -36.703125 L 12.71875 -28.703125 C 12.71875 -28.335938 12.84375 -28.015625 13.09375 -27.734375 C 13.351562 -27.453125 13.671875 -27.3125 14.046875 -27.3125 L 20.296875 -27.3125 C 26.046875 -27.226562 28.921875 -24.171875 28.921875 -18.140625 L 28.921875 -8.484375 C 28.921875 -2.367188 26.046875 0.6875 20.296875 0.6875 L 12.09375 0.6875 C 6.34375 0.6875 3.46875 -2.367188 3.46875 -8.484375 L 3.46875 -13.140625 L 12.71875 -13.140625 L 12.71875 -8.140625 C 12.71875 -7.765625 12.84375 -7.4375 13.09375 -7.15625 C 13.351562 -6.882812 13.671875 -6.75 14.046875 -6.75 L 18.359375 -6.75 C 18.722656 -6.75 19.03125 -6.882812 19.28125 -7.15625 C 19.539062 -7.4375 19.671875 -7.765625 19.671875 -8.140625 L 19.671875 -16.96875 C 19.671875 -17.332031 19.539062 -17.65625 19.28125 -17.9375 C 19.03125 -18.21875 18.722656 -18.359375 18.359375 -18.359375 L 12.09375 -18.359375 C 6.34375 -18.359375 3.46875 -21.414062 3.46875 -27.53125 L 3.46875 -36.5 C 3.46875 -42.613281 6.34375 -45.671875 12.09375 -45.671875 L 19.8125 -45.671875 C 25.5625 -45.671875 28.4375 -42.613281 28.4375 -36.5 Z M 28.4375 -33.15625 "/></g></g></g><g fill="#22c55e" fill-opacity="1"><g transform="translate(33.533533, 60.389881)"><g><path d="M 13.203125 -8.0625 L 23.984375 -8.0625 L 23.984375 0 L 3.46875 0 L 3.46875 -44.984375 L 23.984375 -44.984375 L 23.984375 -37.046875 L 13.203125 -37.046875 L 13.203125 -26.484375 L 23.28125 -26.484375 L 23.28125 -18.84375 L 13.203125 -18.84375 Z M 13.203125 -8.0625 "/></g></g></g><g fill="#22c55e" fill-opacity="1"><g transform="translate(59.669538, 60.389881)"><g><path d="M 21.34375 -45.671875 C 27.09375 -45.671875 29.96875 -42.613281 29.96875 -36.5 L 29.96875 0 L 20.234375 0 L 20.234375 -15.078125 L 13.203125 -15.078125 L 13.203125 0 L 3.46875 0 L 3.46875 -36.5 C 3.46875 -42.613281 6.34375 -45.671875 12.09375 -45.671875 Z M 13.203125 -22.59375 L 20.234375 -22.59375 L 20.234375 -37.671875 C 20.234375 -38.046875 20.101562 -38.367188 19.84375 -38.640625 C 19.59375 -38.921875 19.28125 -39.0625 18.90625 -39.0625 L 14.53125 -39.0625 C 14.15625 -39.0625 13.835938 -38.921875 13.578125 -38.640625 C 13.328125 -38.367188 13.203125 -38.046875 13.203125 -37.671875 Z M 13.203125 -22.59375 "/></g></g></g><g fill="#22c55e" fill-opacity="1"><g transform="translate(93.382202, 60.389881)"><g><path d="M 13.203125 -18.421875 L 13.203125 0 L 3.46875 0 L 3.46875 -44.984375 L 20.78125 -44.984375 C 26.53125 -44.984375 29.40625 -41.921875 29.40625 -35.796875 L 29.40625 -30.59375 C 29.40625 -26.882812 28.082031 -24.519531 25.4375 -23.5 C 27.757812 -22.664062 28.921875 -20.765625 28.921875 -17.796875 L 28.921875 0 L 19.1875 0 L 19.1875 -17.03125 C 19.1875 -17.957031 18.742188 -18.421875 17.859375 -18.421875 Z M 13.203125 -38.375 L 13.203125 -25.234375 L 18.359375 -25.234375 C 18.722656 -25.234375 19.03125 -25.367188 19.28125 -25.640625 C 19.539062 -25.921875 19.671875 -26.25 19.671875 -26.625 L 19.671875 -36.984375 C 19.671875 -37.347656 19.539062 -37.671875 19.28125 -37.953125 C 19.03125 -38.234375 18.722656 -38.375 18.359375 -38.375 Z M 13.203125 -38.375 "/></g></g></g><g fill="#22c55e" fill-opacity="1"><g transform="translate(125.565621, 60.389881)"><g><path d="M 20.234375 -7.375 L 20.234375 -14.3125 L 29.46875 -14.3125 L 29.46875 -8.484375 C 29.46875 -2.367188 26.597656 0.6875 20.859375 0.6875 L 12.09375 0.6875 C 6.34375 0.6875 3.46875 -2.367188 3.46875 -8.484375 L 3.46875 -36.5 C 3.46875 -42.613281 6.34375 -45.671875 12.09375 -45.671875 L 20.859375 -45.671875 C 26.597656 -45.671875 29.46875 -42.613281 29.46875 -36.5 L 29.46875 -32.25 L 20.234375 -32.25 L 20.234375 -37.671875 C 20.234375 -38.046875 20.101562 -38.367188 19.84375 -38.640625 C 19.59375 -38.921875 19.28125 -39.0625 18.90625 -39.0625 L 14.53125 -39.0625 C 14.15625 -39.0625 13.835938 -38.921875 13.578125 -38.640625 C 13.328125 -38.367188 13.203125 -38.046875 13.203125 -37.671875 L 13.203125 -7.375 C 13.203125 -7 13.328125 -6.671875 13.578125 -6.390625 C 13.835938 -6.117188 14.15625 -5.984375 14.53125 -5.984375 L 18.90625 -5.984375 C 19.28125 -5.984375 19.59375 -6.117188 19.84375 -6.390625 C 20.101562 -6.671875 20.234375 -7 20.234375 -7.375 Z M 20.234375 -7.375 "/></g></g></g><g fill="#22c55e" fill-opacity="1"><g transform="translate(157.401501, 60.389881)"><g><path d="M 13.203125 -17.65625 L 13.203125 0 L 3.46875 0 L 3.46875 -44.984375 L 13.203125 -44.984375 L 13.203125 -26.140625 L 20.921875 -26.140625 L 20.921875 -44.984375 L 30.65625 -44.984375 L 30.65625 0 L 20.921875 0 L 20.921875 -17.65625 Z M 13.203125 -17.65625 "/></g></g></g><g fill="#22c55e" fill-opacity="1"><g transform="translate(191.53123, 60.389881)"><g/></g></g><g fill="#22c55e" fill-opacity="1"><g transform="translate(205.572386, 60.389881)"><g><path d="M 21.34375 -45.671875 C 27.09375 -45.671875 29.96875 -42.613281 29.96875 -36.5 L 29.96875 0 L 20.234375 0 L 20.234375 -15.078125 L 13.203125 -15.078125 L 13.203125 0 L 3.46875 0 L 3.46875 -36.5 C 3.46875 -42.613281 6.34375 -45.671875 12.09375 -45.671875 Z M 13.203125 -22.59375 L 20.234375 -22.59375 L 20.234375 -37.671875 C 20.234375 -38.046875 20.101562 -38.367188 19.84375 -38.640625 C 19.59375 -38.921875 19.28125 -39.0625 18.90625 -39.0625 L 14.53125 -39.0625 C 14.15625 -39.0625 13.835938 -38.921875 13.578125 -38.640625 C 13.328125 -38.367188 13.203125 -38.046875 13.203125 -37.671875 Z M 13.203125 -22.59375 "/></g></g></g><g fill="#22c55e" fill-opacity="1"><g transform="translate(239.285051, 60.389881)"><g><path d="M 29.265625 0 L 19.53125 0 L 19.53125 -37.328125 C 19.53125 -37.703125 19.398438 -38.023438 19.140625 -38.296875 C 18.890625 -38.578125 18.582031 -38.71875 18.21875 -38.71875 L 14.453125 -38.71875 C 14.085938 -38.71875 13.773438 -38.578125 13.515625 -38.296875 C 13.265625 -38.023438 13.140625 -37.703125 13.140625 -37.328125 L 13.140625 0 L 3.40625 0 L 3.40625 -36.5 C 3.40625 -42.613281 6.28125 -45.671875 12.03125 -45.671875 L 20.640625 -45.671875 C 26.390625 -45.671875 29.265625 -42.613281 29.265625 -36.5 Z M 29.265625 0 "/></g></g></g><g fill="#22c55e" fill-opacity="1"><g transform="translate(271.607504, 60.389881)"><g><path d="M 13.203125 -44.984375 L 13.203125 0 L 3.46875 0 L 3.46875 -44.984375 Z M 13.203125 -44.984375 "/></g></g></g><g fill="#22c55e" fill-opacity="1"><g transform="translate(288.568098, 60.389881)"><g><path d="M 13.140625 0 L 3.40625 0 L 3.40625 -36.5 C 3.40625 -42.613281 6.28125 -45.671875 12.03125 -45.671875 L 17.171875 -45.671875 C 20.554688 -45.671875 22.96875 -44.554688 24.40625 -42.328125 C 25.75 -44.554688 28.15625 -45.671875 31.625 -45.671875 L 36.78125 -45.671875 C 42.519531 -45.671875 45.390625 -42.613281 45.390625 -36.5 L 45.390625 0 L 35.65625 0 L 35.65625 -37.328125 C 35.65625 -37.703125 35.523438 -38.023438 35.265625 -38.296875 C 35.015625 -38.578125 34.707031 -38.71875 34.34375 -38.71875 L 30.59375 -38.71875 C 30.21875 -38.71875 29.898438 -38.578125 29.640625 -38.296875 C 29.390625 -38.023438 29.265625 -37.703125 29.265625 -37.328125 L 29.265625 0 L 19.53125 0 L 19.53125 -37.328125 C 19.53125 -37.703125 19.398438 -38.023438 19.140625 -38.296875 C 18.890625 -38.578125 18.582031 -38.71875 18.21875 -38.71875 L 14.453125 -38.71875 C 14.085938 -38.71875 13.773438 -38.578125 13.515625 -38.296875 C 13.265625 -38.023438 13.140625 -37.703125 13.140625 -37.328125 Z M 13.140625 0 "/></g></g></g><g fill="#22c55e" fill-opacity="1"><g transform="translate(337.156031, 60.389881)"><g><path d="M 13.203125 -8.0625 L 23.984375 -8.0625 L 23.984375 0 L 3.46875 0 L 3.46875 -44.984375 L 23.984375 -44.984375 L 23.984375 -37.046875 L 13.203125 -37.046875 L 13.203125 -26.484375 L 23.28125 -26.484375 L 23.28125 -18.84375 L 13.203125 -18.84375 Z M 13.203125 -8.0625 "/></g></g></g></g></g></svg>